<svg width="20" height="20" viewBox="0 0 20 20" fill="none" xmlns="http://www.w3.org/2000/svg">
<g clip-path="url(#clip0_335_214)">
<path d="M17.6665 7.00002C18.0832 7.31669 18.3332 7.80835 18.3332 8.33335V16.6667C18.3332 17.1087 18.1576 17.5326 17.845 17.8452C17.5325 18.1578 17.1085 18.3334 16.6665 18.3334H3.33317C2.89114 18.3334 2.46722 18.1578 2.15466 17.8452C1.8421 17.5326 1.6665 17.1087 1.6665 16.6667V8.33335C1.6665 8.07461 1.72675 7.81942 1.84246 7.588C1.95817 7.35657 2.12618 7.15526 2.33317 7.00002L8.99984 2.00002C9.28833 1.78365 9.63922 1.66669 9.99984 1.66669C10.3605 1.66669 10.7113 1.78365 10.9998 2.00002L17.6665 7.00002Z" stroke="#FFB574" stroke-opacity="0.5" stroke-width="1.66667" stroke-linecap="round" stroke-linejoin="round"/>
<path d="M18.3332 8.33331L10.8582 13.0833C10.6009 13.2445 10.3034 13.33 9.99984 13.33C9.69624 13.33 9.39878 13.2445 9.1415 13.0833L1.6665 8.33331" stroke="#FFB574" stroke-opacity="0.5" stroke-width="1.66667" stroke-linecap="round" stroke-linejoin="round"/>
</g>
<defs>
<clipPath id="clip0_335_214">
<rect width="20" height="20" fill="white"/>
</clipPath>
</defs>
</svg>
