<svg width="16" height="16" viewBox="0 0 16 16" fill="none" xmlns="http://www.w3.org/2000/svg">
<path d="M6.44738 2.75735C6.48412 2.37091 6.66361 2.01205 6.95079 1.75087C7.23796 1.4897 7.6122 1.34497 8.00038 1.34497C8.38857 1.34497 8.7628 1.4897 9.04998 1.75087C9.33716 2.01205 9.51665 2.37091 9.55338 2.75735C9.57546 3.00699 9.65736 3.24763 9.79214 3.45891C9.92692 3.67019 10.1106 3.84589 10.3277 3.97114C10.5448 4.09638 10.7888 4.16749 11.0392 4.17843C11.2896 4.18938 11.5389 4.13984 11.7661 4.03402C12.1188 3.87387 12.5185 3.8507 12.8874 3.96901C13.2563 4.08732 13.5679 4.33865 13.7617 4.67409C13.9555 5.00953 14.0176 5.40507 13.9358 5.78373C13.854 6.1624 13.6343 6.4971 13.3194 6.72269C13.1143 6.86658 12.9469 7.05776 12.8313 7.28004C12.7158 7.50231 12.6554 7.74916 12.6554 7.99969C12.6554 8.25021 12.7158 8.49706 12.8313 8.71934C12.9469 8.94161 13.1143 9.13279 13.3194 9.27669C13.6343 9.50228 13.854 9.83697 13.9358 10.2156C14.0176 10.5943 13.9555 10.9898 13.7617 11.3253C13.5679 11.6607 13.2563 11.9121 12.8874 12.0304C12.5185 12.1487 12.1188 12.1255 11.7661 11.9654C11.5389 11.8595 11.2896 11.81 11.0392 11.8209C10.7888 11.8319 10.5448 11.903 10.3277 12.0282C10.1106 12.1535 9.92692 12.3292 9.79214 12.5405C9.65736 12.7517 9.57546 12.9924 9.55338 13.242C9.51665 13.6285 9.33716 13.9873 9.04998 14.2485C8.7628 14.5097 8.38857 14.6544 8.00038 14.6544C7.6122 14.6544 7.23796 14.5097 6.95079 14.2485C6.66361 13.9873 6.48412 13.6285 6.44738 13.242C6.42535 12.9923 6.34345 12.7516 6.20863 12.5402C6.07381 12.3288 5.89003 12.1531 5.67287 12.0278C5.45571 11.9026 5.21156 11.8315 4.9611 11.8206C4.71064 11.8097 4.46125 11.8594 4.23405 11.9654C3.88131 12.1255 3.4816 12.1487 3.11272 12.0304C2.74383 11.9121 2.43217 11.6607 2.23837 11.3253C2.04458 10.9898 1.98253 10.5943 2.06429 10.2156C2.14605 9.83697 2.36578 9.50228 2.68072 9.27669C2.8858 9.13279 3.0532 8.94161 3.16878 8.71934C3.28435 8.49706 3.34469 8.25021 3.34469 7.99969C3.34469 7.74916 3.28435 7.50231 3.16878 7.28004C3.0532 7.05776 2.8858 6.86658 2.68072 6.72269C2.36623 6.49698 2.14688 6.16242 2.06532 5.78401C1.98375 5.4056 2.04579 5.01038 2.23937 4.67516C2.43296 4.33994 2.74426 4.08867 3.11278 3.97018C3.4813 3.85169 3.88071 3.87444 4.23338 4.03402C4.46056 4.13984 4.70988 4.18938 4.96025 4.17843C5.21062 4.16749 5.45467 4.09638 5.67174 3.97114C5.88881 3.84589 6.07251 3.67019 6.20729 3.45891C6.34208 3.24763 6.42397 3.00699 6.44605 2.75735" stroke="#FFB574" stroke-width="1.33333" stroke-linecap="round" stroke-linejoin="round"/>
<path d="M8 10C9.10457 10 10 9.10457 10 8C10 6.89543 9.10457 6 8 6C6.89543 6 6 6.89543 6 8C6 9.10457 6.89543 10 8 10Z" stroke="#FFB574" stroke-width="1.33333" stroke-linecap="round" stroke-linejoin="round"/>
</svg>
